<?xml version="1.0" encoding="utf-8"?>
<!-- Generator: Adobe Illustrator 19.0.0, SVG Export Plug-In . SVG Version: 6.00 Build 0)  -->
<svg version="1.1" id="B1_Brush_Shape_5" xmlns="http://www.w3.org/2000/svg" xmlns:xlink="http://www.w3.org/1999/xlink" x="0px"
	 y="0px" viewBox="74 -25.7 247 151.7" style="enable-background:new 74 -25.7 247 151.7;" xml:space="preserve">
<style type="text/css">
	.st0{fill:#FFFFFF;}
</style>
<g>
	<path d="M200.4,108.8c0-0.7-0.1-1-1.1-0.7c-1,0.4-2.1,0.7-3.1,0.6c-2.4-0.1-4.9-0.5-7.3-0.7c-2-0.2-4.1-0.3-6.2-0.5
		c0-0.4,0-0.8,0-1.3c-4.7-0.7-9.5-1.3-14.2-2c0.2-1.8,0-1.8-1.6-1.8c-0.8,0-1.6-0.5-2.5-0.6c-2.7-0.3-5.4-0.5-8-0.8
		c-0.8-0.1-1.5-0.7-2.2-1.1c-0.5-0.3-1-0.8-1.6-0.9c-3.5-0.4-6.9-0.6-10.4-0.9c-3-0.3-5.9-0.9-8.9-1.3c-2.1-0.3-4.3-0.3-6.4-0.7
		c-2.6-0.4-5.2-1.1-7.8-1.7c5.7-0.3,11.5,0.2,17.1-1.3c-7.4-1.2-15-0.9-22.3-2.7c3-0.3,5.8-1.5,8.8-0.9c-0.1-2,1.7-0.8,2.4-1.8
		c-1.1-0.4-2.2-0.8-3.5-1.3c2-0.5,3.7-0.9,5.4-1.3c0-0.1,0-0.2,0-0.3c-2.5,0.1-5,0.4-7.5,0.4c-2.4-0.1-4.9,0.3-7.1-1.2
		c-0.7,0.2-1.5,0.3-2.3,0.5c0-1.3,0-2.2,1.4-2.9c1.4-0.7,2.5-2,3.6-3.1c0.3-0.3,0.2-1,0.3-1.5c-0.4,0-0.9-0.1-1.3-0.1
		c-1.4-0.1-2.9-0.3-4.3-0.4c0-0.2,0-0.3-0.1-0.5c-0.3,0.4-0.5,0.8-0.8,1.2c-0.3-0.4-0.6-0.8-0.9-1.2c-0.1,0-0.2,0.1-0.3,0.1
		c0,0.7,0.1,1.5,0.1,2.2c-1.4-2.2-3-0.1-4.5-0.4c0.3,0.2,0.6,0.5,0.9,0.7c-0.1,0.1-0.1,0.2-0.2,0.4c-1.2-0.5-2.6-0.9-3.5-1.7
		c-0.9-0.9-1.4-2.2-2-3.3c-1,0.8-2,1.6-3,2.3c-1.2,0.7-2.3,0.4-3.1-0.7c-0.4-0.4-0.9-0.7-1.4-1c-0.2-0.1-0.5-0.1-0.7-0.3
		c-0.7-0.9-1.5-1.9-2-2.9c-0.4-0.9-0.3-2-0.5-2.9c-0.1-0.8-0.3-1.6-0.5-2.3c-0.2-1,0.1-1.5,1.1-1.3c1.2,0.2,1.7-0.3,2.1-1.4
		c0.3-0.8,0.9-1.5,1.4-2.4c-0.5-0.1-1-0.4-1.5-0.4c-3.4-0.1-6.3-2.7-6.6-6c-0.1-1,0-2.1-0.1-3.2c0-0.4-0.2-1.1-0.6-1.3
		c-1.2-0.7-0.6-1.3,0.1-1.7c1.4-0.8,2.9-1.4,4.3-2.2c1.4-0.8,2.6-1.9,3.9-2.9c0.1-0.1,0.3-0.3,0.3-0.5c0.2-1.8,0.9-2.6,2.6-2.6
		c1.3,0,1.3-0.9,1.4-1.7c1-0.4,1.9-0.7,3.3-1.2c-1.7-0.6-2.9-1.2-4.2-1.6c-1.3-0.5-2.7-0.8-4-1.4c-0.8-0.4-1.4-1.1-2-1.8
		c-1.9-1.9-4.1-3.6-5.6-5.8c-1.4-2-3.2-4.3-1.5-7.3c0.4-0.8-0.2-2.2-0.3-3.4c0.3-0.3,0.7-0.6,1.2-1c-0.6-0.3-1-0.5-1.4-0.7
		c0.5-2.1,1-4.2,1.5-5.9c-0.5-0.6-0.8-1-1.2-1.6c0.7-0.2,1.1-0.4,1.6-0.6c-0.1-0.5-0.2-0.9-0.4-1.5c2.4-1.7,4.8-3.5,7.2-5.2
		c0.1-0.1,0.3-0.2,0.4-0.2c2.2,0.7,3.6-1.2,5.4-1.6c1.7-0.4,3.4-1,5.1-1.1c3-0.2,6-0.1,9-0.2c1.3-0.1,2.6-0.3,3.9-0.4
		c0.3,0,0.7,0.2,1,0.1c1-0.1,1.9-0.3,2.9-0.3c2.1,0.2,4,1.6,6.2,1.3c1.1-0.1,2.1-0.4,3-0.6c0-0.9,0-1.5,0-2c0.1-0.1,0.3-0.1,0.4-0.2
		c0.4,0.4,0.9,0.8,1.3,1.2c-0.1,0.1-0.2,0.3-0.3,0.4c1,0.1,2,0.1,3,0.1c0.1-0.7,0.2-1.2,0.3-1.7c0.1,0,0.2,0,0.4,0
		c0.1,0.5,0.3,1,0.4,1.5c3.7,0,7.4,0,11.4,0c-0.2-0.9-0.3-1.4-0.5-2.1c1.4-0.6,2.8-1.1,4.2-1.7c0.8-0.3,2.5,1.2,2.6,2.4
		c0,0.2,0,0.5,0,1c7-0.6,13.9-1.3,21-1.9c-0.5,0.8-0.9,1.5-1.4,2.2c-0.1-0.2-0.2-0.5-0.3-0.5c-2.5-0.1-5.1-1.1-7.6,0
		c-0.2,0.1-0.4,0.4-0.6,0.6c-1.1-1.2-2.5-0.7-3.3-0.2c-1.1,0.7-2.3,0.5-3.5,0.9c0.6,0.8,1.2,1.3,2.1,0.7c0.1-0.1,0.3-0.2,0.4-0.1
		c2,1.4,3.9-1.4,6,0c0.1-0.2,0.2-0.4,0.3-0.6c-0.4-0.2-0.9-0.4-1.4-0.7c1.3-0.5,1.1-0.3,1.9,0.3c0.7,0.5,1.7,0.6,2.6,0.8
		c1.2,0.3,2.4,0.8,3.6,0.8c1.3,0,2.5-0.4,3.8-0.7c0.1,0,0-0.5,0-0.9c0.5-0.1,1.2-0.1,1.9-0.2c-0.4-1-2.1-1.8-4-2.2
		c1.8-0.2,3.6-0.4,5.4-0.6c-0.2-0.3-0.4-0.8-0.6-1.2c-1.2,0-2.3,0-3.5,0c-0.4,1.5-2,0-2.8,0.8c0.2-0.5,0.4-1,0.7-1.5
		c1.4-0.1,3-0.3,4.5-0.3c1,0,2.2-0.2,2.5,1.4c0,0.3,0.9,0.6,1.4,0.6c0.7,0.1,1.4,0,2.1,0c0,0.1,0,0.2,0,0.4c-1.3,0.1-2.7,0.3-4,0.4
		c0,0.1,0,0.1,0,0.2c0.5,0.2,1.1,0.3,1.6,0.5c0,0.1,0,0.2,0,0.3c-0.8,0.1-1.5,0.2-2.3,0.3c0,0.1,0,0.2,0,0.3
		c2.4,0.2,4.9,0.4,7.1,0.6c0.4-0.5,0.7-1.1,0.9-1.1c1.3,0.1,2.9-0.1,3.9,0.6c1.4,1,2.3-0.1,3.4-0.2c0.6,0,1.2-0.3,1.8-0.5
		c0.2,1.5,0.8-0.3,1.4,0.1c0.7,0.5,1.9,0.4,2.9,0.5c1.2,0,2.4-0.1,3.6-0.1c0.5,0,1,0.1,1.4,0.1c0.6,0,1.2,0,1.8,0
		c0-0.1,0-0.3,0.1-0.4c-0.2-0.2-0.4-0.3-0.8-0.6c1.5,0,2.7,0,4.1,0c0,0.3,0.1,0.7,0.1,1.1c0.2-0.1,0.4-0.1,0.4-0.2
		c0.7-0.9,1.4-1.6,2.7-0.9c0.5,0.2,1.3-0.3,2-0.4c1.1-0.1,2.3,0,3.5,0c0-0.2,0-0.3,0-0.5c-0.2-0.1-0.5-0.3-0.7-0.3
		c-2.2,0-4.4,0-6.6,0c-0.2,0-0.4,0-0.6,0.1c-2.4,0.7-3.2,0.7-5.4-0.4c-0.3,0.3-0.6,0.5-1.1,0.9c-0.6-1.3-1.4-1.2-2.6-1
		c-1.3,0.3-2.7,0.1-4.2,0.1c0.2,0.2,0.4,0.5,0.7,0.7c-0.1,0.1-0.1,0.2-0.2,0.4c-0.5-0.2-1-0.5-1.6-0.8c-1.5,1.1-5.5,1.1-6.6-0.2
		c-0.2,0.4-0.3,0.7-0.5,1.3c-0.4-1.7-1.4-1.2-2.4-1.1c-0.9,0.1-1.8,0.3-2.9,0.4c0.3-0.6,0.3-1,0.5-1.2c0.2-0.2,0.5-0.3,0.7-0.3
		c1,0.3,2,0.6,3,0.9c0.1-0.2,0.1-0.4,0.2-0.6c-0.4-0.1-0.8-0.2-1.2-0.4c0.2-0.2,0.4-0.3,0.5-0.3c-1.9-1-3.9,0.1-5.9-0.1
		c-0.1-0.4-0.1-0.8-0.2-1.5c1.7,0.2,3.4,0.3,5.4,0.5c2.2-1.4,5.1-0.5,8-0.6c0,0.2,0.1,0.4,0.1,0.6c-0.8,0.3-1.7,0.6-2.5,0.9
		c0,0.1-0.1,0.2-0.1,0.3c0.7,0.2,1.5,0.5,2.2,0.5c2.9,0,5.8-0.1,8.7-0.3c0.7,0,1.4-0.3,1.9-0.7c0.5,0.2,1,0.4,1.5,0.6
		c0.1-0.2,0.2-0.4,0.3-0.6c-1-0.5-1.9-0.9-3.1-1.5c3.5-1,6.5-0.5,9.4,1.1c0-0.2,0.1-0.3,0.1-0.5c-0.2-0.4-0.3-0.9-0.4-1.1
		c1.3,0,2.8-0.4,3.9,0.1c1.7,0.8,3.5,0.6,5.2,1c1,0.2,2,0.2,3,0.4c1,0.1,1.6-0.1,1.5-1.5c0.3,1.3,0.9,1.5,2,1.1
		c0.5-0.2,1.3,0.2,2,0.3c0,0.2,0,0.3,0,0.5c-1.4,0-2.7,0-4.1,0c0,0.1-0.1,0.3-0.1,0.4c0.4,0.2,0.9,0.5,1.2,0.7
		c-0.3,0.1-0.7,0.2-1.2,0.4c-0.8-1.7-2.2-1.2-3.6-1.1c0,0.1-0.1,0.3-0.1,0.4c0.4,0.2,0.9,0.4,1.4,0.6c-0.1,0.3-0.3,0.6-0.5,1
		c0.4,0.1,0.7,0.2,1.1,0.2c1.9,0,3.9,0,5.8,0c0.6,0,1.2,0.3,1.8,0.2c0.5,0,0.9-0.4,1.4-0.6c-0.4-0.2-0.8-0.4-1.5-0.7
		c0.5-0.2,0.8-0.3,1.4-0.5c-1,0-1.6,0-2.2,0c0-0.1,0-0.2,0-0.3c0.9-0.1,1.9-0.1,2.8-0.2c0-0.1,0-0.2,0-0.3c-1-0.1-2-0.2-3-0.3
		c0-0.1,0-0.3,0-0.4c4.9,0,9.7,0,14.6,0c0,0.1,0,0.1,0,0.2c-2,0-3.9,0-5.9,0c0,0.2,0,0.3,0,0.5c2.7,0.5,5.4,0.3,8.3-0.1
		c-0.4-0.3-0.7-0.5-1-0.6c0-0.1,0-0.3,0-0.4c2.7,0.3,5.5,0.6,8.2,0.9c0.1,0.1,0.1,0.2,0.2,0.3c-0.7,0.3-1.4,0.7-2.1,0.8
		c-2,0.2-4,0.6-5.9,0.1c-2.3-0.6-4.4,0.5-6.6,0.4c-2.1-0.2-4.2-0.5-6.4-0.8c-0.5,1.1-0.1,1.8,1.4,1.8c2.3,0,4.6,0.1,7,0.1
		c0.3,0,0.7,0.4,1,0.5c0.4,0.2,0.7,0.4,1.1,0.6c0.1-0.1,0.1-0.3,0.2-0.4c-0.2-0.1-0.4-0.3-0.6-0.4c0-0.1,0.1-0.2,0.1-0.3
		c0.5,0.3,1.1,0.5,1.7,0.8c-0.1-1.5,1-1.2,1.8-1.3c2.2-0.1,4.5,0,6.9,0c0.5,0.4,0.4,2,2,1.7c0-0.6,0.1-1,0.1-1.6
		c0.3,0,0.7-0.1,0.7,0c0.4,1,1.3,0.7,2,0.9c0.9,0.2,1.9,0.5,2.8,0.4c0.7-0.1,1.2-0.5,2.1-0.3c1.4,0.3,2.9,0.1,4.6,0.1
		c-0.3-0.3-0.4-0.6-0.9-1.1c1.2-0.1,2.2,0,3.2-0.2c1.6-0.4,1.3,1.1,2,2c-8.5,0.4-16.9,0.8-25.4,1.2c0,0.2,0,0.3,0,0.5
		c0.9,0.1,1.8,0.3,2.9,0.4c-0.5,0.2-0.9,0.4-1.2,0.5c0,0.1,0,0.2,0,0.2C265-2.4,282.2-3,299.4-3.7c0,0.3,0,0.5,0,0.8
		c-15.5,0.7-31,1.5-46.5,2.2c0,0.1,0,0.3,0,0.4c0.3,0.1,0.6,0.3,0.9,0.3c1.8-0.1,3.6-0.4,5.4,0.3c0.7,0.2,1.7-0.4,2.6-0.5
		c1.8-0.1,3.6-0.8,5.4-0.2c0.5,0.1,1.2-0.5,1.6-0.4c1.3,0.5,2.4,1.9,3.7,0c2.2,0.2,4.4,0.4,6.6,0.6c0.2,0,0.5-0.1,0.8-0.2
		c1.4-0.7,2.9-1.1,4.4-0.2c0.3,0.2,0.7,0.2,1.1,0.3c1.2,0.2,2.4,0.4,3.7,0.6c0-0.4,0-0.9,0-1.5c0,0,0.2-0.2,0.3-0.1
		c1.6,1.1,3.5-0.2,5.1,0.6c0.2,0.1,0.5,0,0.7-0.1c2.3-0.6,4.5,0.5,6.8,0.3c-1.5,0.8-3.1,1-4.8,1.1c-1.8,0.1-3.6,0.4-5.3,0.5
		c-1.8,0.2-3.6,0.3-5.4,0.4c-1.8,0.1-3.6,0.2-5.4,0.6c2.4,0,4.8,0,7.3,0c0,0.1,0,0.1,0,0.2c-1.7,0.2-3.4,0.4-5.2,0.6
		c0,0.2,0,0.4,0.1,0.6c1.2-0.1,2.3-0.3,3.5-0.4c0.4,0,0.8-0.1,1.1-0.1c2.3-0.2,4.6-0.4,6.9-0.6c1.9-0.1,3.8-0.1,5.7-0.3
		c2.6-0.2,5.3-0.5,7.9-0.7c2.3-0.1,4.5,0,6.8,0c0,0.1,0.1,0.2,0.1,0.4c-0.3,0.1-0.5,0.3-0.8,0.3c-1.7,0.1-3.5,0.2-5.2,0.2
		c-1.1,0-1.9,0.2-2,1.6c-0.6-0.2-1.1-0.3-2-0.5c0.7-0.2,1.1-0.3,1.6-0.4c0-0.1,0-0.3,0-0.4c-4,0.3-7.9,0.6-11.9,0.8
		c0,0.1,0,0.3,0,0.4c1.4,0,2.8,0,4.2,0c-1.7,0.3-3.5,1-5.3,0.1c-0.1,0.2-0.5,0.7-0.8,1.2c-0.1-0.2-0.1-0.3-0.2-0.5
		c-1.4,0.2-2.8,0.4-4.2,0.7c-1.3,0.3-2.5,1.3-3.9,0.1c-0.5-0.4-1.8,0.2-2.7,0.4c-0.4,0.1-0.7,0.5-1.1,0.6c-1.1,0.3-2.2,0.5-3.3,0.8
		c-1.1,0.3-1.9,0.3-2.2-1.1c-1,0.5-1.9,1-2.8,1.3c-0.4,0.1-0.8,0-1.2,0c-0.6,0-1.1-0.2-1.7-0.1c-1.8,0.3-3.5,0.8-5.4,1.2
		c-0.3-0.8-0.5-1.4-0.8-2.2c-1.1,0.7-2.2,1.3-3.2,1.9c-0.6,0.4-3.5,0.1-4.1-0.3c-0.5-0.3-1.1-0.4-1.7-0.7c-0.1,0.2-0.1,0.4-0.2,0.5
		c0.4,0.2,0.9,0.5,1.4,0.7c-0.2,0.2-0.3,0.4-0.6,0.8c0.9,0.1,1.7,0,2.5,0.2c0.6,0.1,1.2-0.2,1.5,1c0.1,0.6,1.7,1.2,2.7,1.4
		c1.9,0.5,3.9,0.7,5.9,1c0.4,0.1,0.8,0,1.3,0c-0.1-0.5-0.2-0.7-0.4-1.1c0.1,0,0.3-0.1,0.4-0.1c0.2,0,0.5,0.1,0.7,0.1
		c2.4-0.3,4.1,0.8,5.7,2.3c0.2,0.2,0.5,0.3,0.7,0.4c1.2,0.2,2.3,0.3,3.5,0.5c-0.5,1.7-0.5,1.8,1.1,2c3.1,0.3,6.2,0.7,9.3,0.9
		c0.6,0,1.3-0.7,2-0.7c3.6,0,7.2-1.2,10.9-0.5c0.7,0.1,1.4,0,2.1,0c0.1,0.8,0.3,1.5,0.5,2.5c-0.2,0.1-0.6,0.4-1.2,0.7
		c0.7,0.4,1,0.5,1.5,0.8c-0.3,1.9-0.6,3.7-0.9,5.5c0.3,0.3,0.9,0.6,0.8,0.8c-0.1,0.4-0.5,0.8-0.9,1.3c0,0.1,0.2,0.5,0.3,1
		c-0.9,0.8-1.9,1.7-2.9,2.6c-0.2,0.2-0.7,0.5-0.6,0.6c0.1,0.3,0.4,0.6,0.7,0.8c1.5,1.1,3,2.2,4.5,3.3c0.1,0.1,0.3,0.3,0.3,0.5
		c0,2.5,1.9,3.6,3.6,4.8c1.2,0.9,2.3,2,3.4,3c-1,0.5-1.9,0.9-3,1.4c0.7,0.6,1.2,0.9,1.5,1.2c-1.4,0.7-2.8,1.4-4.1,2.1
		c-0.8,0.5-0.5,2.9,0.5,3.3c0.8,0.4,1.8,0.5,2.6,0.8c1,0.3,2,0.8,3,1.2c0,0.1,0,0.3-0.1,0.4c-0.9,0.4-1.7,1-2.6,1.3
		c-1,0.3-1.5,0.8-1.1,1.9c0.3,0.8,0.1,1.4-0.7,1.8c-0.9,0.4-1.2,1-0.4,1.5c-0.3,0.7-0.8,1.4-0.8,2c0,1.3,0.2,2.7,2.1,2.8
		c0.5,0,0.9,0.7,1.4,1.1c-0.1,0.2-0.2,0.4-0.2,0.6c-2.6,0-5.2,0-7.9,0c1.3,2.3,3.6,1.1,5.5,2.1c-1,0.5-1.7,0.9-2.5,1.3
		c0.4,0.4,0.6,0.7,0.9,0.9c0,0.1-0.1,0.2-0.1,0.3c-0.4-0.1-0.9-0.3-1.3-0.4c-3.2-0.1-6.4-0.4-9.6-0.2c-2,0.1-4.1,0.6-6.1,1
		c-0.5,0.1-0.8,0.8-1.2,1.3c0.4,0.3,0.8,0.8,1.2,0.9c1.4,0.2,2.9,0.1,4.3,0.2c0.4,0,0.8,0,1.3,0c-0.3,2.8,2.6,1.4,3.2,2.9
		c-2.5,0.9-5.2,1.9-7.8,2.9c0,0.1,0,0.2,0,0.2c0.9,0.1,1.7,0.2,2.6,0.3c0,0.1,0,0.2,0.1,0.4c-1,0.3-2,0.7-3,0.9
		c-2.5,0.3-5.1,0.5-7.6,0.8c-1.5,0.2-1.6,0.4-1,1.9c1,2.6,2.3,5.2,2.8,7.9c0.3,1.5-0.7,3.3-1.1,5c-0.2,0.7-0.4,1.4-0.4,2.1
		c0.1,1.2-0.3,2-1.3,2.6c-0.9,0.6-2.1,1.2-2.4,2.1c-0.9,2.2-2.7,2.3-4.6,2.6c-0.3,0-0.6,0.1-0.9,0.1c-1.5,0.1-1.8-0.3-1.1-1.9
		c-2.6,0.8-5.1,1.5-7.5,2.3c-0.1-0.2-0.1-0.4-0.2-0.7c1.2-0.4,2.4-0.7,3.8-1.2c-1.1-1.3-2.3-1.8-3.8-1.6c-0.8,0.1-1.3,0.2-1.8-0.7
		c-0.5-0.8-1.5-0.7-2.1,0.3c-1.4-1-2.5-0.9-3.9,0.1c-0.4,0.3-0.8,0.5-1.3,0.5c-2.6,0.6-5.1,1-7.7,1.6c-0.6,0.1-1.2,0.5-1.6,1
		c-0.9,0.9-1.9,1-3,0.4c0-0.2,0.1-0.5,0.2-0.9c-1,0.1-2,0.1-3,0.2c-0.7,0-1.4-0.1-2.1-0.1c-1,0-2.2-0.6-2.9,0.8
		c-0.1,0.2-0.7,0.1-1,0c-0.4-0.1-0.8-0.4-1.4-0.8c0.3,1.4-0.1,1.6-1.1,1.3c-0.8-0.3-1.7-0.3-2.7-0.5c0.1,0.7,0.2,1.1,0.3,1.8
		c-1.9-0.3-3.6-0.6-5.3-0.9c-1.2-0.2-2.4-0.3-3.6-0.2c-2.7,0.1-5.3,0-7.8-1.3c-0.8-0.4-2.3,0.2-3.5,0.5c-0.3,0.1-0.6,0.4-0.9,0.3
		c-2.3-0.1-4.6-0.2-6.9-0.2C202.2,108.8,201.4,108.8,200.4,108.8z M267.2,1.9c0-0.3,0-0.5-0.1-0.8c-1.4,0.1-2.7,0.2-4.1,0.3
		c0,0.1,0,0.3,0,0.4C264.5,1.9,265.9,1.9,267.2,1.9z M200.4,105.8c0,0.2-0.1,0.4-0.1,0.7c1,0.2,2,0.4,3,0.7c0.1-0.3,0.1-0.5,0.2-0.8
		C202.4,106.1,201.4,105.9,200.4,105.8z M209.4-7.6c0.5,1.1,1.6,1.2,3.1,0.4C211.5-7.3,210.5-7.4,209.4-7.6z"/>
	<path d="M168.3-7.3c-0.5,0.2-0.8,0.4-1.1,0.4c-0.9,0.1-1.8,0.1-2.7,0c-0.4,0-0.8-0.5-1.2-0.4c-1.7,0.3-3.3,0.7-5,1.2
		c-0.9,0.2-3.8,0-4.4-0.6c0.3-0.1,0.7-0.3,0.9-0.3c2.3,0.4,4.3-0.8,6.5-0.8c2,0,4-0.1,6-0.1C167.7-7.9,168-7.6,168.3-7.3z"/>
	<path d="M201.1-10.2c0.2,0.5,0.4,0.9,0.6,1.4c-0.7-0.1-1.2-0.2-1.9-0.2c0.2,0.4,0.4,0.7,0.6,1c-1.3,0.8-1.7-0.5-2.5-1.1
		c0.1,0.5,0.1,0.7,0.2,1.1c-1.1-0.7-2.1-1-3,0.1c-0.5-0.6-0.9-1-1.3-1.5c0-0.2,0-0.3,0-0.5C196.2-10,198.6-10.1,201.1-10.2z"/>
	<path d="M290.1-6.2c-2.5,0-5,0-7.4,0C283.7-6.7,288.8-6.9,290.1-6.2z"/>
	<path d="M82.5,76.6c-0.9,0.1-1.8,0.3-2.7,0.4c-0.1-0.1-0.2-0.3-0.2-0.4c0.4-0.3,0.9-0.8,1.3-0.8c0.5-0.1,1.1,0.3,1.7,0.4
		C82.6,76.3,82.5,76.5,82.5,76.6z"/>
	<path class="st0" d="M267.2,1.9c-1.4,0-2.7,0-4.1,0c0-0.1,0-0.3,0-0.4c1.4-0.1,2.7-0.2,4.1-0.3C267.2,1.4,267.2,1.7,267.2,1.9z"/>
	<path class="st0" d="M200.4,105.8c1,0.2,2,0.4,3,0.5c-0.1,0.3-0.1,0.5-0.2,0.8c-1-0.2-2-0.4-3-0.7
		C200.3,106.2,200.3,106,200.4,105.8z"/>
	<path class="st0" d="M209.4-7.6c1.1,0.2,2,0.3,3.1,0.4C211-6.4,209.9-6.5,209.4-7.6z"/>
</g>
</svg>
