<?xml version="1.0" encoding="utf-8"?>
<!-- Generator: Adobe Illustrator 19.0.0, SVG Export Plug-In . SVG Version: 6.00 Build 0)  -->
<svg version="1.1" id="Layer_1" xmlns="http://www.w3.org/2000/svg" xmlns:xlink="http://www.w3.org/1999/xlink" x="0px" y="0px"
	 viewBox="304 -56.7 708.7 210" style="enable-background:new 304 -56.7 708.7 210;" xml:space="preserve">
<path d="M310.4,5c18.2,0,36.4,0.1,54.6,0.1c23,0,46,0,69,0c1.9,0,2.9-0.2,3.6-2.3c1.7-4.7,6.2-6.6,11.2-4.9c6.1,2,12.1,4.2,18.7,3.7
	c1.6-0.1,2.5-0.6,3.3-2c3.8-7.5,9.5-13,16.8-17.1c1.5-0.8,2.9-2.1,3.8-3.5c6.6-10.4,16.2-16.9,27.9-19.8c10.1-2.4,20.4-4.2,30.8-5.3
	c36.8-4,73.7-4.5,110.6-4.2c21.4,0.2,42.8,0.3,64.2,1.1c21.7,0.8,43.5,2.2,64.9,6.3c11,2.1,21.3,6.1,29.4,14.2
	c1.9,1.9,3.8,3.9,5.1,6.2c1.6,2.7,3.8,4.5,6.5,6.1c6.8,3.9,11.8,9.4,15.5,16.2c0.5,0.8,1.8,1.6,2.8,1.7c6.5,0.9,12.5-1.1,18.5-3.2
	c6.5-2.3,10.9,0.1,13,7c6.2,0,12.5,0,18.9,0c35.1,0,70.1,0,105.2,0c0.6,0,1.2,0,1.9-0.1c0,23,0,46,0,69.1c-0.4,0-0.7-0.1-1.1-0.1
	c-37.8,0-75.6,0-113.5,0c-0.4,0-0.8,0.1-1.2,0.2c-1.8,6.6-4.8,9-11.6,9.5c-3.6,0.2-7.1,0.4-10.7,0.6c-5,0.3-9.9,0.5-14.9,0.7
	c-0.6,2.3-1.1,4.4-1.7,6.6c-4.5,15.7-13.5,27.2-29.3,33c-5.2,1.9-10.3,4.4-15.2,7.1c-10.4,5.6-21.3,10.2-32.6,13.4
	c-18.1,5.2-36.7,6.1-55.3,2.6c-11.9-2.3-21.8-8.2-28.9-17.8c-7.6-10.3-14.2-21.4-21.3-32c-2.4-3.6-4.9-7.3-7.7-10.6
	c-2.3-2.7-3.5-2.7-6-0.1c-2.1,2.2-3.8,4.7-5.5,7.2c-7.2,10.9-14,22.1-21.5,32.9c-9.2,13.3-22.4,20.3-38.5,21.8
	c-22.9,2.2-45-1-66-10.6c-10.7-4.9-21.1-10.3-32-14.8c-13.2-5.5-21.4-15.3-25.9-28.5c-1.1-3.3-2-6.8-2.9-9.9
	c-7.8-0.5-15.5-1-23.1-1.3c-6.7-0.3-12.2-1.9-13.4-9.7c-1.1,0-2,0-2.9,0c-20.1,0-40.1,0-60.2,0c-17.8,0-35.5,0-53.3,0.1
	C310.4,51.1,310.4,28.1,310.4,5z M729.7,12.9c-22.7-0.1-40.9,17.9-41,40.5c-0.1,22.3,18.1,40.7,40.3,40.7c22.8,0,41-17.9,41.2-40.4
	C770.3,31.3,752.2,12.9,729.7,12.9z M546.2,54.4c0.1,21.3,18.5,39.9,40.7,39.7c23.3-0.1,41.1-19.3,40.6-41.2
	c-0.5-23.1-19.3-41-42.2-40.2C563.3,13.5,545.7,32.2,546.2,54.4z"/>
</svg>
