<?xml version="1.0" encoding="utf-8"?>
<!-- Generator: Adobe Illustrator 22.0.1, SVG Export Plug-In . SVG Version: 6.00 Build 0)  -->
<svg version="1.1" id="Layer_1" xmlns="http://www.w3.org/2000/svg" xmlns:xlink="http://www.w3.org/1999/xlink" x="0px" y="0px"
	 viewBox="0 0 708.7 708.7" style="enable-background:new 0 0 708.7 708.7;" xml:space="preserve">
<g>
	<path d="M354.1,195.5c101.7,0,203.3,0,305,0c11.5,0,21.7,3.3,30.2,11.1c10.7,10,15,22.2,13.5,36.9c-7.8,74.1-15.3,148.1-23.1,222.2
		c-1.4,13.1-7.1,24.6-16.4,34c-8.6,8.6-18.9,13.4-31.3,13.4c-50.2,0-100.3,0.1-150.5,0c-24.4,0-44.1-13.8-52.7-36.6
		c-10.5-27.7-20.8-55.5-31.1-83.3c-7.3-19.5-21.7-29.4-42.9-29.4c-21.6,0-36,9.7-43.4,29.4c-10.2,27.3-20.4,54.6-30.6,81.9
		c-9.1,24.5-28.5,38-54.7,38c-48,0-96,0-144,0c-26.1,0-44.4-13.6-50.9-39c-2.5-9.8-3.1-20-4.2-30.1c-5-47.4-9.8-94.8-14.7-142.2
		c-2.1-20.4-4.4-40.7-6.2-61.2c-2.2-24.3,17.6-45.1,42.8-45.1c60.7-0.1,121.3,0,182,0C271.8,195.5,312.9,195.5,354.1,195.5z
		 M619.9,341.9c0-39.2-31.6-70.8-70.8-70.9c-38.8,0-70.6,31.7-70.6,70.6c0,39.3,31.5,70.9,70.8,70.8
		C588.3,412.4,619.8,380.9,619.9,341.9z M90.2,341.6c-0.2,38.9,31.2,70.6,70.3,70.9c38.9,0.3,70.9-31.2,71.2-70
		c0.3-38.9-31.1-71.1-69.8-71.4C122.3,270.7,90.5,302.1,90.2,341.6z"/>
	<path d="M548.6,285.9c0,7.6,0,14.9,0,22.2c-20,2.5-31.3,13.6-33.7,33.7c-7.3,0-14.6,0-21.8,0C487.1,316.8,519.9,283.5,548.6,285.9z
		"/>
	<path d="M126.4,341.9c-7.6,0-14.8,0-22.1,0c-2.2-27.1,23.6-57.3,55.9-56.1c0,7.4,0,14.8,0,22.3C140.3,310.5,129,321.6,126.4,341.9z
		"/>
</g>
</svg>
